<svg width="1121" height="799" viewBox="0 0 1121 799" fill="none" xmlns="http://www.w3.org/2000/svg">
<path d="M795.726 560.574C795.726 690.726 690.217 796.234 560.065 796.234C429.913 796.234 324.404 690.726 324.404 560.574C324.404 430.422 429.913 324.913 560.065 324.913C690.217 324.913 795.726 430.422 795.726 560.574ZM560.065 797.043C690.663 797.043 796.534 691.172 796.534 560.574C796.534 429.975 690.663 324.105 560.065 324.105C429.467 324.105 323.596 429.975 323.596 560.574C323.596 691.172 429.467 797.043 560.065 797.043ZM895.602 560.574C895.602 745.644 745.573 895.673 560.503 895.673C375.433 895.673 225.404 745.644 225.404 560.574C225.404 375.504 375.433 225.475 560.503 225.475C745.573 225.475 895.602 375.504 895.602 560.574ZM560.503 896.481C746.02 896.481 896.411 746.09 896.411 560.574C896.411 375.057 746.02 224.666 560.503 224.666C374.987 224.666 224.596 375.057 224.596 560.574C224.596 746.09 374.987 896.481 560.503 896.481ZM998.196 560.574C998.196 802.348 802.2 998.345 560.425 998.345C318.651 998.345 122.654 802.348 122.654 560.574C122.654 318.799 318.651 122.803 560.425 122.803C802.2 122.803 998.196 318.799 998.196 560.574ZM560.425 999.153C802.646 999.153 999.005 802.795 999.005 560.574C999.005 318.353 802.646 121.994 560.425 121.994C318.205 121.994 121.846 318.353 121.846 560.574C121.846 802.795 318.205 999.153 560.425 999.153ZM1120.1 560.574C1120.1 869.768 869.444 1120.42 560.25 1120.42C251.056 1120.42 0.404221 869.768 0.404221 560.574C0.404221 251.379 251.056 0.727951 560.25 0.727951C869.444 0.727951 1120.1 251.379 1120.1 560.574Z" stroke="url(#paint0_linear_1_188)" stroke-opacity="0.1" stroke-width="0.808442"/>
<defs>
<linearGradient id="paint0_linear_1_188" x1="560.25" y1="0.32373" x2="560.25" y2="842.199" gradientUnits="userSpaceOnUse">
<stop stop-color="#25C0FF"/>
<stop offset="1" stop-color="#25C0FF" stop-opacity="0"/>
</linearGradient>
</defs>
</svg>
